<mxfile host="app.diagrams.net" agent="Mozilla/5.0 (Windows NT 10.0; Win64; x64) AppleWebKit/537.36 (KHTML, like Gecko) Chrome/135.0.0.0 Safari/537.36 Edg/135.0.0.0" version="26.2.14">
  <diagram name="第 1 页" id="1RJ0WHH1Grk9KFzHiL9v">
    <mxGraphModel dx="1554" dy="882" grid="1" gridSize="10" guides="1" tooltips="1" connect="1" arrows="1" fold="1" page="1" pageScale="1" pageWidth="827" pageHeight="1169" math="0" shadow="0">
      <root>
        <mxCell id="0" />
        <mxCell id="1" parent="0" />
        <mxCell id="AqevQCCf0CBJSamrauh9-11" value="" style="rounded=0;whiteSpace=wrap;html=1;fillColor=none;" vertex="1" parent="1">
          <mxGeometry x="780" y="450" width="230" height="240" as="geometry" />
        </mxCell>
        <mxCell id="AqevQCCf0CBJSamrauh9-20" value="" style="rounded=0;whiteSpace=wrap;html=1;fillColor=none;strokeColor=default;dashed=1;dashPattern=8 8;" vertex="1" parent="1">
          <mxGeometry x="800" y="465" width="200" height="55" as="geometry" />
        </mxCell>
        <mxCell id="AqevQCCf0CBJSamrauh9-2" value="" style="rounded=0;whiteSpace=wrap;html=1;fillColor=none;strokeColor=default;dashed=1;dashPattern=8 8;" vertex="1" parent="1">
          <mxGeometry x="200" y="450" width="240" height="430" as="geometry" />
        </mxCell>
        <mxCell id="AqevQCCf0CBJSamrauh9-4" value="retri" style="text;html=1;align=center;verticalAlign=middle;whiteSpace=wrap;rounded=0;" vertex="1" parent="1">
          <mxGeometry x="200" y="850" width="40" height="30" as="geometry" />
        </mxCell>
        <mxCell id="AqevQCCf0CBJSamrauh9-5" value="" style="rounded=0;whiteSpace=wrap;html=1;fillColor=none;strokeColor=default;dashed=1;dashPattern=8 8;" vertex="1" parent="1">
          <mxGeometry x="460" y="450" width="300" height="430" as="geometry" />
        </mxCell>
        <mxCell id="AqevQCCf0CBJSamrauh9-6" value="control plane" style="text;html=1;align=center;verticalAlign=middle;whiteSpace=wrap;rounded=0;" vertex="1" parent="1">
          <mxGeometry x="460" y="850" width="80" height="30" as="geometry" />
        </mxCell>
        <mxCell id="AqevQCCf0CBJSamrauh9-8" value="" style="rounded=0;whiteSpace=wrap;html=1;fillColor=none;strokeColor=default;dashed=1;dashPattern=8 8;" vertex="1" parent="1">
          <mxGeometry x="780" y="770" width="590" height="110" as="geometry" />
        </mxCell>
        <mxCell id="AqevQCCf0CBJSamrauh9-10" value="storage" style="text;html=1;align=center;verticalAlign=middle;whiteSpace=wrap;rounded=0;" vertex="1" parent="1">
          <mxGeometry x="780" y="850" width="60" height="30" as="geometry" />
        </mxCell>
        <mxCell id="AqevQCCf0CBJSamrauh9-12" value="" style="rounded=0;whiteSpace=wrap;html=1;fillColor=none;" vertex="1" parent="1">
          <mxGeometry x="1100" y="450" width="120" height="150" as="geometry" />
        </mxCell>
        <mxCell id="AqevQCCf0CBJSamrauh9-14" value="" style="rounded=0;whiteSpace=wrap;html=1;fillColor=none;" vertex="1" parent="1">
          <mxGeometry x="1250" y="450" width="120" height="150" as="geometry" />
        </mxCell>
        <mxCell id="AqevQCCf0CBJSamrauh9-15" value="" style="shape=cylinder3;whiteSpace=wrap;html=1;boundedLbl=1;backgroundOutline=1;size=5.60003662109375;sketch=1;curveFitting=1;jiggle=2;fillColor=#b0e3e6;strokeColor=#0e8088;" vertex="1" parent="1">
          <mxGeometry x="820" y="477.5" width="30" height="30" as="geometry" />
        </mxCell>
        <mxCell id="AqevQCCf0CBJSamrauh9-18" value="" style="shape=cylinder3;whiteSpace=wrap;html=1;boundedLbl=1;backgroundOutline=1;size=5.60003662109375;sketch=1;curveFitting=1;jiggle=2;fillColor=#b0e3e6;strokeColor=#0e8088;" vertex="1" parent="1">
          <mxGeometry x="950" y="477.5" width="30" height="30" as="geometry" />
        </mxCell>
        <mxCell id="AqevQCCf0CBJSamrauh9-19" value="" style="shape=cylinder3;whiteSpace=wrap;html=1;boundedLbl=1;backgroundOutline=1;size=5.60003662109375;sketch=1;curveFitting=1;jiggle=2;fillColor=#b0e3e6;strokeColor=#0e8088;" vertex="1" parent="1">
          <mxGeometry x="860" y="477.5" width="30" height="30" as="geometry" />
        </mxCell>
        <mxCell id="AqevQCCf0CBJSamrauh9-22" value="Pods" style="text;html=1;align=center;verticalAlign=middle;whiteSpace=wrap;rounded=0;direction=north;" vertex="1" parent="1">
          <mxGeometry x="825" y="535" width="25" height="55" as="geometry" />
        </mxCell>
      </root>
    </mxGraphModel>
  </diagram>
</mxfile>
